<?xml version="1.0" standalone="no"?>
<!DOCTYPE svg PUBLIC "-//W3C//DTD SVG 20010904//EN"
 "http://www.w3.org/TR/2001/REC-SVG-20010904/DTD/svg10.dtd">
<svg version="1.0" xmlns="http://www.w3.org/2000/svg"
 width="261.000000pt" height="261.000000pt" viewBox="0 0 261.000000 261.000000"
 preserveAspectRatio="xMidYMid meet">
<metadata>
Created by potrace 1.11, written by Peter Selinger 2001-2013
</metadata>
<g transform="translate(0.000000,261.000000) scale(0.100000,-0.100000)"
fill="#000000" stroke="none">
<path d="M1210 2443 c-83 -7 -187 -26 -205 -36 -11 -6 -26 -10 -33 -8 -8 1
-20 -3 -28 -10 -8 -6 -14 -8 -14 -5 0 4 -10 1 -22 -6 -13 -7 -25 -13 -28 -13
-28 -5 -157 -76 -227 -124 -154 -106 -309 -285 -378 -438 -15 -32 -35 -76 -45
-98 -76 -163 -92 -540 -30 -715 23 -63 89 -205 120 -260 72 -122 227 -285 346
-362 73 -48 243 -133 258 -129 4 1 14 -4 22 -10 8 -7 17 -9 21 -6 3 4 12 2 20
-4 7 -6 13 -8 13 -4 0 4 6 3 13 -2 51 -41 441 -50 533 -12 16 7 33 11 38 10 4
-1 14 4 22 10 8 6 14 8 14 4 0 -4 7 -2 15 5 8 7 15 9 15 5 0 -4 7 -2 15 5 8 6
18 9 23 6 6 -3 15 1 22 9 7 8 17 15 22 15 44 0 233 120 334 213 120 110 255
316 293 447 7 25 16 50 20 55 10 13 26 80 42 172 24 139 1 381 -45 488 -8 17
-25 62 -40 101 -69 184 -233 385 -411 502 -59 39 -191 111 -217 117 -5 2 -10
4 -13 5 -3 1 -9 4 -15 5 -5 1 -12 4 -15 5 -3 1 -9 4 -15 5 -5 1 -13 4 -17 5
-5 2 -12 4 -18 5 -5 1 -23 7 -38 13 -34 14 -243 43 -295 40 -20 0 -53 -3 -72
-5z m253 -549 c3 -3 -4 -31 -14 -62 -60 -172 -149 -534 -161 -651 -4 -50 16
-49 53 1 28 39 180 339 307 611 l51 107 129 0 c71 0 131 -2 133 -5 3 -2 -19
-76 -48 -162 -76 -222 -159 -499 -178 -593 -29 -141 -6 -191 50 -110 28 41 28
41 48 21 20 -20 20 -20 -18 -68 -157 -197 -258 -247 -343 -169 -36 33 -37 37
-40 114 -5 94 15 179 83 363 25 67 44 132 42 143 -3 17 -7 13 -21 -19 -38 -84
-179 -363 -214 -420 -86 -145 -160 -215 -225 -215 -32 0 -46 7 -77 38 -53 53
-59 98 -31 270 11 74 19 137 17 140 -3 2 -21 -29 -41 -69 -160 -316 -305 -440
-409 -348 -48 41 -64 111 -48 208 22 128 13 121 153 121 121 0 121 0 115 -22
-3 -13 -9 -42 -12 -65 -5 -35 -4 -43 8 -43 61 0 212 294 358 700 29 80 57 155
61 168 8 21 13 22 137 22 71 0 131 -3 135 -6z"/>
</g>
</svg>
